HIERARCHY
ROOT Hips
{
 OFFSET 0.000000 0.000000 0.000000
 CHANNELS 6 Xposition Yposition Zposition Yrotation Xrotation Zrotation
 JOINT Chest
 {
  OFFSET 0.000000 9.585900 0.002600
  CHANNELS 3 Yrotation Xrotation Zrotation
  JOINT Chest2
  {
   OFFSET 0.000000 9.601200 -0.005300
   CHANNELS 3 Yrotation Xrotation Zrotation
   JOINT Chest3
   {
    OFFSET 0.000000 9.561800 0.000000
    CHANNELS 3 Yrotation Xrotation Zrotation
    JOINT Chest4
    {
     OFFSET 0.000000 9.552100 0.000000
     CHANNELS 3 Yrotation Xrotation Zrotation
     JOINT Neck
     {
      OFFSET 0.000000 14.453000 0.000000
      CHANNELS 3 Yrotation Xrotation Zrotation
      JOINT Head
      {
       OFFSET 0.000000 8.936500 -0.011300
       CHANNELS 3 Yrotation Xrotation Zrotation
       End Site
       {
        OFFSET 0.000000 17.073600 -0.006000
       }
      }
     }
     JOINT RightCollar
     {
      OFFSET -2.921100 9.558500 0.000000
      CHANNELS 3 Yrotation Xrotation Zrotation
      JOINT RightShoulder
      {
       OFFSET -13.519700 0.000000 0.000000
       CHANNELS 3 Yrotation Xrotation Zrotation
       JOINT RightElbow
       {
        OFFSET 0.000000 -29.696600 0.000000
        CHANNELS 3 Yrotation Xrotation Zrotation
        JOINT RightWrist
        {
         OFFSET 0.000000 -24.004700 0.000000
         CHANNELS 3 Yrotation Xrotation Zrotation
         End Site
         {
          OFFSET 0.000000 -17.728500 0.000000
         }
        }
       }
      }
     }
     JOINT LeftCollar
     {
      OFFSET 2.921100 9.558500 0.000000
      CHANNELS 3 Yrotation Xrotation Zrotation
      JOINT LeftShoulder
      {
       OFFSET 13.519700 0.000000 0.000000
       CHANNELS 3 Yrotation Xrotation Zrotation
       JOINT LeftElbow
       {
        OFFSET 0.000000 -29.696600 0.000000
        CHANNELS 3 Yrotation Xrotation Zrotation
        JOINT LeftWrist
        {
         OFFSET 0.000000 -24.004700 0.000000
         CHANNELS 3 Yrotation Xrotation Zrotation
         End Site
         {
          OFFSET 0.000000 -17.728500 0.000000
         }
        }
       }
      }
     }
    }
   }
  }
 }
 JOINT RightHip
 {
  OFFSET -7.771700 -0.012900 -0.001300
  CHANNELS 3 Yrotation Xrotation Zrotation
  JOINT RightKnee
  {
   OFFSET 0.000000 -40.869800 0.001200
   CHANNELS 3 Yrotation Xrotation Zrotation
   JOINT RightAnkle
   {
    OFFSET 0.000000 -39.717900 0.002100
    CHANNELS 3 Yrotation Xrotation Zrotation
    JOINT RightToe
    {
     OFFSET 0.000000 -4.965400 11.033500
     CHANNELS 3 Yrotation Xrotation Zrotation
     End Site
     {
      OFFSET 0.000000 -1.423100 5.872300
     }
    }
   }
  }
 }
 JOINT LeftHip
 {
  OFFSET 7.771700 -0.012900 -0.001300
  CHANNELS 3 Yrotation Xrotation Zrotation
  JOINT LeftKnee
  {
   OFFSET 0.000000 -40.869800 0.001200
   CHANNELS 3 Yrotation Xrotation Zrotation
   JOINT LeftAnkle
   {
    OFFSET 0.000000 -39.717900 0.002100
    CHANNELS 3 Yrotation Xrotation Zrotation
    JOINT LeftToe
    {
     OFFSET 0.000000 -4.965400 11.033500
     CHANNELS 3 Yrotation Xrotation Zrotation
     End Site
     {
      OFFSET 0.000000 -1.423100 5.872300
     }
    }
   }
  }
 }
}
MOTION
Frames: 12
Frame Time: 0.008333
0.000000 85.388000 0.000000 0.000000 -5.767877 0.000000 0.000000 11.653817 0.000000 0.000000 -5.885947 0.000000 0.000000 -0.000000 0.000000 0.000000 -0.000000 0.000000 0.000000 12.528835 0.000000 0.000000 0.711642 0.000000 0.000000 -0.000000 0.000000 0.000000 0.000000 -90.000000 0.000000 -2.309062 0.000000 0.000000 2.309062 0.000000 0.000000 -0.000000 0.000000 0.000000 -0.000000 90.000000 0.000000 -2.309062 0.000000 0.000000 2.309062 0.000000 0.000000 8.520406 0.000000 0.000000 1.905762 0.000000 -0.000000 -4.658285 0.000000 0.000000 -0.000000 0.000000 0.000000 8.520406 0.000000 0.000000 1.905762 0.000000 -0.000000 -4.658285 0.000000 0.000000 -0.000000 0.000000
-159.916682 49.118921 18.200590 177.948712 -30.820432 -3.669886 1.514481 19.487002 3.210724 0.168350 2.433364 0.353227 0.246575 3.988390 0.565428 1.357750 16.947161 2.587953 15.442622 17.094848 -4.179933 29.796607 -1.559227 -12.585314 -2.253343 -4.470660 -2.967774 2.073520 -12.814476 -11.984801 -52.880585 -56.571577 95.434281 6.554228 8.653093 -12.169099 -1.795439 -6.168971 4.005883 13.582316 -7.141556 17.549319 76.933186 -56.490528 -108.986905 2.007572 8.653911 -9.062662 -2.777076 -54.239077 -8.870354 -174.819456 83.724877 -162.571784 -28.809083 -1.802886 -4.101903 -0.073804 -12.209781 0.838071 -13.514372 -55.957407 17.166149 -72.875775 65.281885 -77.976322 30.795121 7.124457 16.455544 -0.022552 -0.448019 0.005200
-159.924875 49.118115 18.195522 178.029878 -30.794169 -3.640300 1.537944 19.488877 3.227855 0.146475 2.429105 0.342652 0.248445 3.989749 0.566574 1.366231 16.948966 2.593368 15.619051 17.183850 -4.219981 30.113305 -1.344266 -12.683058 -2.245791 -4.680793 -3.077839 1.855250 -12.620421 -11.807295 -53.277939 -56.102294 95.867434 6.951226 8.617217 -10.480658 -1.948114 -6.416387 4.091236 13.578030 -6.822177 17.693159 76.619106 -55.886182 -109.177015 1.573940 8.206830 -11.430014 -2.728122 -54.269005 -8.985206 -174.763854 83.695018 -162.541234 -28.817587 -1.815731 -4.071930 -0.116007 -12.198190 0.862557 -13.493338 -55.984216 17.066029 -72.783350 65.283714 -77.907920 30.803640 7.139497 16.466841 -0.021329 -0.453043 0.011510
-159.930810 49.118146 18.188341 178.106546 -30.775452 -3.613373 1.494759 19.485608 3.193344 0.192046 2.442597 0.361920 0.250227 3.992454 0.567162 1.373718 16.953518 2.595640 15.742293 17.268389 -4.234320 30.325754 -1.157156 -12.720617 -2.229685 -4.928902 -3.183718 1.587987 -12.410897 -11.622004 -53.666092 -55.676801 96.294181 7.350340 8.414872 -8.575106 -2.118286 -6.703577 4.172971 13.563489 -6.476150 17.854152 76.371835 -55.345283 -109.374667 1.273395 7.753873 -13.481432 -2.681478 -54.289061 -9.089000 -174.659561 83.666282 -162.459469 -28.831276 -1.835078 -4.044721 -0.089166 -12.184278 0.876585 -13.466421 -55.999848 16.973702 -72.706246 65.277108 -77.849570 30.797447 7.145882 16.473829 -0.012935 -0.448598 0.019777
-159.927117 49.120131 18.178414 178.178463 -30.774342 -3.631764 1.472227 19.498965 3.208845 0.239027 2.455038 0.377898 0.252431 3.995865 0.567175 1.326666 16.942143 2.583901 15.853996 17.360414 -4.220146 30.414854 -1.016811 -12.694230 -2.163209 -5.201128 -3.293100 1.288382 -12.177215 -11.414864 -54.010101 -55.309562 96.655180 7.678323 8.000982 -6.438604 -2.262000 -7.010516 4.246402 13.539540 -6.100273 18.032774 76.079798 -54.806309 -109.489722 1.123064 7.309312 -15.227397 -2.679785 -54.283117 -9.090186 -174.336017 83.639924 -162.167417 -28.867841 -1.846164 -3.995288 -0.083356 -12.168701 0.893844 -13.486240 -55.978832 16.993913 -72.676280 65.213426 -77.828930 30.734371 7.132237 16.431118 0.053986 -0.413698 0.060921
-159.928378 49.120242 18.170078 178.255575 -30.755965 -3.613216 1.550252 19.514644 3.260667 0.172394 2.440443 0.350218 0.255601 3.999202 0.566553 1.367696 16.957043 2.588720 15.812263 17.404027 -4.182063 30.365621 -0.934444 -12.604880 -2.182193 -5.559076 -3.392231 0.976379 -11.890781 -11.176286 -54.309663 -54.988132 96.923681 7.895188 7.355863 -4.036611 -2.517643 -7.379492 4.324984 13.520338 -5.694726 18.227745 75.700165 -54.217462 -109.491378 1.112876 6.900501 -16.695691 -2.627514 -54.302273 -9.175924 -174.164461 83.606913 -162.020479 -28.889921 -1.862153 -3.960647 -0.130148 -12.152993 0.928882 -13.463468 -55.995965 16.936732 -72.606402 65.186824 -77.791948 30.729535 7.149065 16.448238 0.044180 -0.424561 0.082418
-159.934811 49.118538 18.163487 178.335969 -30.721608 -3.555038 1.560941 19.503085 3.228934 0.106692 2.428882 0.329003 0.308194 4.010836 0.576436 1.415460 16.970832 2.589974 15.693163 17.426812 -4.121811 30.171612 -0.913995 -12.464248 -2.203424 -5.988419 -3.479176 0.677691 -11.503673 -10.917121 -54.613092 -54.680200 97.115560 7.985843 6.517810 -1.344223 -2.802898 -7.760897 4.415924 13.510712 -5.266254 18.414438 75.259143 -53.559306 -109.390400 1.205060 6.541478 -17.927321 -2.502530 -54.348433 -9.343641 -173.990367 83.558333 -161.877584 -28.891370 -1.870290 -3.920923 -0.131812 -12.139368 0.959855 -13.388111 -56.033990 16.826073 -72.427754 65.196722 -77.696627 30.733784 7.182451 16.545374 0.002032 -0.454660 0.075218
-159.930715 49.119183 18.154367 178.379906 -30.711549 -3.530512 1.604480 19.505436 3.237250 0.134274 2.435505 0.334729 0.291816 4.009623 0.569452 1.445383 16.975987 2.586557 15.525005 17.440521 -4.053565 29.841835 -0.948485 -12.292662 -2.192715 -6.489793 -3.557407 0.413531 -10.963661 -10.650733 -54.972298 -54.351360 97.246759 7.936493 5.577421 1.627320 -3.086539 -8.129033 4.532872 13.513198 -4.817197 18.552613 74.812962 -52.858820 -109.214821 1.372669 6.207055 -18.938843 -2.454644 -54.362348 -9.401722 -173.903043 83.524941 -161.817505 -28.910902 -1.886331 -3.891222 -0.129173 -12.129559 0.981057 -13.344571 -56.033846 16.799774 -72.330083 65.171329 -77.648773 30.731237 7.191284 16.582318 0.044050 -0.447368 0.068649
-159.928548 49.120581 18.144080 178.443285 -30.709369 -3.494971 1.630116 19.515625 3.222683 0.110190 2.434609 0.330079 0.331736 4.016369 0.570518 1.486317 16.980791 2.583875 15.296861 17.440864 -3.987466 29.405755 -1.019894 -12.111758 -2.171462 -7.082986 -3.634557 0.179130 -10.220857 -10.372648 -55.385408 -53.962313 97.293824 7.751290 4.679814 4.819675 -3.389373 -8.489683 4.687826 13.542393 -4.341269 18.617768 74.412056 -52.169584 -108.989641 1.605609 5.862149 -19.726631 -2.371897 -54.365104 -9.511745 -173.754718 83.488147 -161.683546 -28.955519 -1.908250 -3.854165 -0.104584 -12.118015 0.999240 -13.282569 -56.027421 16.736564 -72.227288 65.143619 -77.599235 30.718819 7.198438 16.615673 0.057883 -0.445159 0.080414
-159.920138 49.122496 18.135023 178.486362 -30.704917 -3.479240 1.690319 19.520319 3.240598 0.144164 2.440974 0.334431 0.316717 4.015879 0.564754 1.536556 16.985551 2.581707 15.031339 17.432188 -3.930753 28.905712 -1.112627 -11.939103 -2.137477 -7.769251 -3.735386 -0.124041 -9.267004 -10.064983 -55.732260 -53.462939 97.208464 7.486772 3.972251 8.127249 -3.702184 -8.847476 4.875087 13.617804 -3.833617 18.606975 74.099796 -51.538472 -108.746010 1.903747 5.490705 -20.266438 -2.316111 -54.373238 -9.557390 -173.513515 83.456884 -161.457231 -29.006568 -1.912514 -3.827406 -0.132469 -12.115134 1.034122 -13.251129 -56.017379 16.731211 -72.175465 65.091761 -77.576669 30.697998 7.201461 16.604303 0.102713 -0.430407 0.105060
-159.910705 49.128572 18.121287 178.561138 -30.735222 -3.479970 1.732147 19.563648 3.261016 0.179379 2.447323 0.338190 0.302452 4.017962 0.559806 1.591817 16.992901 2.580213 14.755226 17.411895 -3.887404 28.392196 -1.224148 -11.789736 -2.078027 -8.507960 -3.894023 -0.669878 -8.175905 -9.706482 -55.825122 -52.816972 96.968439 7.230486 3.530678 11.381086 -4.007635 -9.203406 5.087508 13.757392 -3.303380 18.519942 73.899203 -50.988351 -108.511490 2.275935 5.087599 -20.518622 -2.300286 -54.326870 -9.582069 -173.398843 83.422654 -161.393534 -29.016310 -1.950994 -3.733153 -0.190880 -12.083579 1.035307 -13.236229 -55.970805 16.715010 -72.122936 65.039030 -77.555427 30.677821 7.209653 16.592947 0.146361 -0.420314 0.128450
-159.904426 49.132940 18.113360 178.608527 -30.729226 -3.446037 1.730118 19.567249 3.228642 0.243133 2.466082 0.346530 0.315639 4.025874 0.558658 1.646792 17.005087 2.579099 14.496452 17.374219 -3.856305 27.917068 -1.359156 -11.670696 -1.990470 -9.224873 -4.143891 -1.492202 -7.037717 -9.270686 -55.633509 -52.045012 96.603455 7.047140 3.359933 14.339792 -4.280894 -9.546510 5.315257 13.965441 -2.769151 18.359558 73.811798 -50.515136 -108.292902 2.725326 4.658315 -20.460613 -2.231686 -54.346544 -9.614302 -173.089970 83.379138 -161.158812 -29.060224 -1.935203 -3.633363 -0.212840 -12.079765 1.039330 -13.183551 -55.963886 16.676409 -72.003705 65.000791 -77.492920 30.685750 7.233742 16.634727 0.146293 -0.428389 0.131745
